<svg width="232" height="204" viewBox="0 0 232 204" fill="none" xmlns="http://www.w3.org/2000/svg">
<rect x="70" y="65" width="160" height="98" rx="46" fill="#AF6F42" stroke="#814621" stroke-width="4"/>
<path d="M139.308 122.027C133.888 127.406 117.381 139.5 78.5001 139.5C78.5001 139.5 71 128.5 71 108C71 103.179 71.6598 97.2687 72.559 91.452C74.8 76.9548 87.7847 67 102.454 67H151C151.94 71.2886 152 80.716 152 86.25C152 102.491 146.649 112.489 143.587 116.881C142.311 118.711 140.891 120.455 139.308 122.027Z" fill="#9B572D" stroke="#9B572D"/>
<path d="M113.776 4.23096C99.6534 -0.569204 89.5639 29.7409 89.5639 29.7409L118.625 35.901C118.625 35.901 127.899 9.03112 113.776 4.23096Z" fill="#9B572D" stroke="#814621" stroke-width="4"/>
<path d="M67.5 122C37.749 122 19.2925 109.709 13.4843 105.163C12.1241 104.099 10.9706 102.816 10.0824 101.334C7.43392 96.9174 2 85.9431 2 70.2498C2 56.9131 5.92453 46.9845 8.72872 41.5925C10.371 38.4346 13.0091 35.9914 16.2345 34.4861C24.0766 30.8263 41.999 24.2731 72.5 22.4998C106.69 20.512 125.075 29.588 131.173 33.3904C132.78 34.3923 134.122 35.7264 135.147 37.3183C138.102 41.9066 144 53.1995 144 70.2498C144 89.2523 136.674 99.7081 134.261 102.637C133.77 103.233 133.25 103.79 132.688 104.32C128.886 107.902 111.148 122 67.5 122Z" fill="#AF6F42" stroke="#814621" stroke-width="4"/>
<path d="M152.5 23C143 11.5 118.5 32 118.5 32L140 52.5C140 52.5 162 34.5 152.5 23Z" fill="#AF6F42" stroke="#814621" stroke-width="4"/>
<path d="M148.43 27.2286C142.162 19.911 126.5 32.4998 126.5 32.4998C126.5 32.4998 132.023 36.1688 134.5 38.9998C138 42.9998 139.5 46.9998 139.5 46.9998C139.5 46.9998 154.697 34.5462 148.43 27.2286Z" fill="#9B572D"/>
<path d="M110 179C110 180.885 108.854 182.836 106.497 184.407C104.154 185.969 100.802 187 97 187C93.1976 187 89.8457 185.969 87.5028 184.407C85.1459 182.836 84 180.885 84 179C84 177.115 85.1459 175.164 87.5028 173.593C89.8457 172.031 93.1976 171 97 171C100.802 171 104.154 172.031 106.497 173.593C108.854 175.164 110 177.115 110 179Z" fill="#9B572D" stroke="#814621" stroke-width="4"/>
<path d="M179 194C179 195.885 177.854 197.836 175.497 199.407C173.154 200.969 169.802 202 166 202C162.198 202 158.846 200.969 156.503 199.407C154.146 197.836 153 195.885 153 194C153 192.115 154.146 190.164 156.503 188.593C158.846 187.031 162.198 186 166 186C169.802 186 173.154 187.031 175.497 188.593C177.854 190.164 179 192.115 179 194Z" fill="#9B572D" stroke="#814621" stroke-width="4"/>
<path d="M92 62.5H113" stroke="#403E41" stroke-width="8" stroke-linecap="round"/>
<path d="M5.875 56C7.44396 49.2012 11.5154 42.0707 12.9034 39.766C13.2108 39.2556 13.6351 38.8376 14.146 38.5311C15.6852 37.6078 19.2189 35.5527 21.875 34.5C23.1568 33.992 24.7554 33.5109 26.2482 33.1088C28.6469 32.4629 30.9377 34.2663 30.9722 36.7502C31.0689 43.7087 31.0615 56.4478 29.875 62C29.5321 63.6044 29.1244 65.4429 28.7023 67.3117C27.0655 74.5595 20.8051 80.0635 13.375 80C11.9401 79.9877 10.2012 79.8232 8.63595 79.6309C6.08053 79.3171 4.13361 77.2839 4.04123 74.7109C3.89321 70.5885 4.06583 63.8397 5.875 56Z" fill="#9B572D" stroke="#9B572D" stroke-width="0.5" stroke-linecap="round"/>
<path d="M112.5 30L121.004 32.6855C121.657 32.8917 122.246 33.2621 122.715 33.7612L136.634 48.5785C137.198 49.1782 137.562 49.937 137.679 50.7516L138.5 56.5" stroke="#AF6F42" stroke-width="4" stroke-linecap="round"/>
<path d="M122.314 33.2209L121.388 33.0032C118.473 32.3171 115.865 34.9611 116.592 37.867L119.413 49.1528C119.774 50.5959 120.906 51.7196 122.351 52.07L131.558 54.3018C134.075 54.9122 136.5 53.0049 136.5 50.4144V49.0708C136.5 48.0611 136.118 47.0888 135.431 46.349L124.329 34.3928C123.789 33.8108 123.087 33.4029 122.314 33.2209Z" fill="#AF6F42" stroke="#AF6F42" stroke-width="4" stroke-linecap="round"/>
<path d="M141 47L139 50" stroke="#AF6F42" stroke-width="2" stroke-linecap="round"/>
<path d="M100 186C100 187.885 98.8541 189.836 96.4972 191.407C94.1543 192.969 90.8024 194 87 194C83.1976 194 79.8457 192.969 77.5028 191.407C75.1459 189.836 74 187.885 74 186C74 184.115 75.1459 182.164 77.5028 180.593C79.8457 179.031 83.1976 178 87 178C90.8024 178 94.1543 179.031 96.4972 180.593C98.8541 182.164 100 184.115 100 186Z" fill="#9B572D" stroke="#814621" stroke-width="4"/>
<path d="M217 179C217 180.885 215.854 182.836 213.497 184.407C211.154 185.969 207.802 187 204 187C200.198 187 196.846 185.969 194.503 184.407C192.146 182.836 191 180.885 191 179C191 177.115 192.146 175.164 194.503 173.593C196.846 172.031 200.198 171 204 171C207.802 171 211.154 172.031 213.497 173.593C215.854 175.164 217 177.115 217 179Z" fill="#9B572D" stroke="#814621" stroke-width="4"/>
</svg>
