<svg width="232" height="204" viewBox="0 0 232 204" fill="none" xmlns="http://www.w3.org/2000/svg">
<rect x="70" y="65" width="160" height="98" rx="46" fill="#AF6F42" stroke="#814621" stroke-width="4"/>
<path d="M139.308 122.027C133.888 127.406 117.381 139.5 78.5001 139.5C78.5001 139.5 71 128.5 71 108C71 103.179 71.6598 97.2687 72.559 91.452C74.8 76.9548 87.7847 67 102.454 67H151C151.94 71.2886 152 80.716 152 86.25C152 102.491 146.649 112.489 143.587 116.881C142.311 118.711 140.891 120.455 139.308 122.027Z" fill="#9B572D" stroke="#9B572D"/>
<path d="M113.776 4.23096C99.6534 -0.569204 89.5639 29.7409 89.5639 29.7409L118.625 35.901C118.625 35.901 127.899 9.03112 113.776 4.23096Z" fill="#9B572D" stroke="#814621" stroke-width="4"/>
<path d="M67.5 122C37.749 122 19.2925 109.709 13.4843 105.163C12.1241 104.099 10.9706 102.816 10.0824 101.334C7.43392 96.9174 2 85.9431 2 70.2498C2 56.9131 5.92453 46.9845 8.72872 41.5925C10.371 38.4346 13.0091 35.9914 16.2345 34.4861C24.0766 30.8263 41.999 24.2731 72.5 22.4998C106.69 20.512 125.075 29.588 131.173 33.3904C132.78 34.3923 134.122 35.7264 135.147 37.3183C138.102 41.9066 144 53.1995 144 70.2498C144 89.2523 136.674 99.7081 134.261 102.637C133.77 103.233 133.25 103.79 132.688 104.32C128.886 107.902 111.148 122 67.5 122Z" fill="#AF6F42" stroke="#814621" stroke-width="4"/>
<path d="M152.5 23C143 11.5 118.5 32 118.5 32L140 52.5C140 52.5 162 34.5 152.5 23Z" fill="#AF6F42" stroke="#814621" stroke-width="4"/>
<path d="M148.43 27.2286C142.162 19.911 126.5 32.4998 126.5 32.4998C126.5 32.4998 132.023 36.1688 134.5 38.9998C138 42.9998 139.5 46.9998 139.5 46.9998C139.5 46.9998 154.697 34.5462 148.43 27.2286Z" fill="#9B572D"/>
<path d="M86 179C86 180.885 84.8541 182.836 82.4972 184.407C80.1543 185.969 76.8024 187 73 187C69.1976 187 65.8457 185.969 63.5028 184.407C61.1459 182.836 60 180.885 60 179C60 177.115 61.1459 175.164 63.5028 173.593C65.8457 172.031 69.1976 171 73 171C76.8024 171 80.1543 172.031 82.4972 173.593C84.8541 175.164 86 177.115 86 179Z" fill="#9B572D" stroke="#814621" stroke-width="4"/>
<path d="M217 194C217 195.885 215.854 197.836 213.497 199.407C211.154 200.969 207.802 202 204 202C200.198 202 196.846 200.969 194.503 199.407C192.146 197.836 191 195.885 191 194C191 192.115 192.146 190.164 194.503 188.593C196.846 187.031 200.198 186 204 186C207.802 186 211.154 187.031 213.497 188.593C215.854 190.164 217 192.115 217 194Z" fill="#9B572D" stroke="#814621" stroke-width="4"/>
<path d="M92 62.5H113" stroke="#403E41" stroke-width="8" stroke-linecap="round"/>
<path d="M5.875 56C7.44396 49.2012 11.5154 42.0707 12.9034 39.766C13.2108 39.2556 13.6351 38.8376 14.146 38.5311C15.6852 37.6078 19.2189 35.5527 21.875 34.5C23.1568 33.992 24.7554 33.5109 26.2482 33.1088C28.6469 32.4629 30.9377 34.2663 30.9722 36.7502C31.0689 43.7087 31.0615 56.4478 29.875 62C29.5321 63.6044 29.1244 65.4429 28.7023 67.3117C27.0655 74.5595 20.8051 80.0635 13.375 80C11.9401 79.9877 10.2012 79.8232 8.63595 79.6309C6.08053 79.3171 4.13361 77.2839 4.04123 74.7109C3.89321 70.5885 4.06583 63.8397 5.875 56Z" fill="#9B572D" stroke="#9B572D" stroke-width="0.5" stroke-linecap="round"/>
<path d="M112.5 30L121.004 32.6855C121.657 32.8917 122.246 33.2621 122.715 33.7612L136.634 48.5785C137.198 49.1782 137.562 49.937 137.679 50.7516L138.5 56.5" stroke="#AF6F42" stroke-width="4" stroke-linecap="round"/>
<path d="M122.314 33.2209L121.388 33.0032C118.473 32.3171 115.865 34.9611 116.592 37.867L119.413 49.1528C119.774 50.5959 120.906 51.7196 122.351 52.07L131.558 54.3018C134.075 54.9122 136.5 53.0049 136.5 50.4144V49.0708C136.5 48.0611 136.118 47.0888 135.431 46.349L124.329 34.3928C123.789 33.8108 123.087 33.4029 122.314 33.2209Z" fill="#AF6F42" stroke="#AF6F42" stroke-width="4" stroke-linecap="round"/>
<path d="M141 47L139 50" stroke="#AF6F42" stroke-width="2" stroke-linecap="round"/>
<path d="M124 194C124 195.885 122.854 197.836 120.497 199.407C118.154 200.969 114.802 202 111 202C107.198 202 103.846 200.969 101.503 199.407C99.1459 197.836 98 195.885 98 194C98 192.115 99.1459 190.164 101.503 188.593C103.846 187.031 107.198 186 111 186C114.802 186 118.154 187.031 120.497 188.593C122.854 190.164 124 192.115 124 194Z" fill="#9B572D" stroke="#814621" stroke-width="4"/>
<path d="M179 179C179 180.885 177.854 182.836 175.497 184.407C173.154 185.969 169.802 187 166 187C162.198 187 158.846 185.969 156.503 184.407C154.146 182.836 153 180.885 153 179C153 177.115 154.146 175.164 156.503 173.593C158.846 172.031 162.198 171 166 171C169.802 171 173.154 172.031 175.497 173.593C177.854 175.164 179 177.115 179 179Z" fill="#9B572D" stroke="#814621" stroke-width="4"/>
</svg>
