<svg width="232" height="204" viewBox="0 0 232 204" fill="none" xmlns="http://www.w3.org/2000/svg">
<rect x="-2" y="2" width="160" height="98" rx="46" transform="matrix(-1 0 0 1 160 63)" fill="#AF6F42" stroke="#814621" stroke-width="4"/>
<path d="M92.6924 122.027C98.1115 127.406 114.619 139.5 153.5 139.5C153.5 139.5 161 128.5 161 108C161 103.179 160.34 97.2687 159.441 91.452C157.2 76.9548 144.215 67 129.546 67H80.9999C80.0595 71.2886 79.9997 80.716 79.9997 86.25C79.9997 102.491 85.351 112.489 88.413 116.881C89.6894 118.711 91.1086 120.455 92.6924 122.027Z" fill="#9B572D" stroke="#9B572D"/>
<path d="M118.224 4.23096C132.347 -0.569204 142.436 29.7409 142.436 29.7409L113.375 35.901C113.375 35.901 104.101 9.03112 118.224 4.23096Z" fill="#9B572D" stroke="#814621" stroke-width="4"/>
<path d="M164.5 122C194.251 122 212.707 109.709 218.516 105.163C219.876 104.099 221.029 102.816 221.918 101.334C224.566 96.9174 230 85.9431 230 70.2498C230 56.9131 226.075 46.9845 223.271 41.5925C221.629 38.4346 218.991 35.9914 215.766 34.4861C207.923 30.8263 190.001 24.2731 159.5 22.4998C125.31 20.512 106.925 29.588 100.827 33.3904C99.2202 34.3923 97.8783 35.7264 96.853 37.3183C93.8978 41.9066 88 53.1995 88 70.2498C88 89.2523 95.3256 99.7081 97.7391 102.637C98.2298 103.233 98.7498 103.79 99.3115 104.32C103.114 107.902 120.852 122 164.5 122Z" fill="#AF6F42" stroke="#814621" stroke-width="4"/>
<path d="M79.5 23C89 11.5 113.5 32 113.5 32L92 52.5C92 52.5 70 34.5 79.5 23Z" fill="#AF6F42" stroke="#814621" stroke-width="4"/>
<path d="M83.5705 27.2286C89.8375 19.911 105.5 32.4998 105.5 32.4998C105.5 32.4998 99.9771 36.1688 97.5 38.9998C94 42.9998 92.5 46.9998 92.5 46.9998C92.5 46.9998 77.3034 34.5462 83.5705 27.2286Z" fill="#9B572D"/>
<path d="M108 179C108 180.885 109.146 182.836 111.503 184.407C113.846 185.969 117.198 187 121 187C124.802 187 128.154 185.969 130.497 184.407C132.854 182.836 134 180.885 134 179C134 177.115 132.854 175.164 130.497 173.593C128.154 172.031 124.802 171 121 171C117.198 171 113.846 172.031 111.503 173.593C109.146 175.164 108 177.115 108 179Z" fill="#9B572D" stroke="#814621" stroke-width="4"/>
<path d="M53 194C53 195.885 54.1459 197.836 56.5028 199.407C58.8457 200.969 62.1976 202 66 202C69.8024 202 73.1543 200.969 75.4972 199.407C77.8541 197.836 79 195.885 79 194C79 192.115 77.8541 190.164 75.4972 188.593C73.1543 187.031 69.8024 186 66 186C62.1976 186 58.8457 187.031 56.5028 188.593C54.1459 190.164 53 192.115 53 194Z" fill="#9B572D" stroke="#814621" stroke-width="4"/>
<path d="M140 62.5H119" stroke="#403E41" stroke-width="8" stroke-linecap="round"/>
<path d="M226.125 56C224.556 49.2012 220.485 42.0707 219.097 39.766C218.789 39.2556 218.365 38.8376 217.854 38.5311C216.315 37.6078 212.781 35.5527 210.125 34.5C208.843 33.992 207.245 33.5109 205.752 33.1088C203.353 32.4629 201.062 34.2663 201.028 36.7502C200.931 43.7087 200.938 56.4478 202.125 62C202.468 63.6044 202.876 65.4429 203.298 67.3117C204.934 74.5595 211.195 80.0635 218.625 80C220.06 79.9877 221.799 79.8232 223.364 79.6309C225.919 79.3171 227.866 77.2839 227.959 74.7109C228.107 70.5885 227.934 63.8397 226.125 56Z" fill="#9B572D" stroke="#9B572D" stroke-width="0.5" stroke-linecap="round"/>
<path d="M119.5 30L110.996 32.6855C110.343 32.8917 109.754 33.2621 109.285 33.7612L95.3656 48.5785C94.8023 49.1782 94.4376 49.937 94.3212 50.7516L93.5 56.5" stroke="#AF6F42" stroke-width="4" stroke-linecap="round"/>
<path d="M109.686 33.2209L110.612 33.0032C113.527 32.3171 116.135 34.9611 115.408 37.867L112.587 49.1528C112.226 50.5959 111.094 51.7196 109.649 52.07L100.442 54.3018C97.9248 54.9122 95.5 53.0049 95.5 50.4144V49.0708C95.5 48.0611 95.8818 47.0888 96.5688 46.349L107.671 34.3928C108.211 33.8108 108.913 33.4029 109.686 33.2209Z" fill="#AF6F42" stroke="#AF6F42" stroke-width="4" stroke-linecap="round"/>
<path d="M91 47L93 50" stroke="#AF6F42" stroke-width="2" stroke-linecap="round"/>
<path d="M146 194C146 195.885 147.146 197.836 149.503 199.407C151.846 200.969 155.198 202 159 202C162.802 202 166.154 200.969 168.497 199.407C170.854 197.836 172 195.885 172 194C172 192.115 170.854 190.164 168.497 188.593C166.154 187.031 162.802 186 159 186C155.198 186 151.846 187.031 149.503 188.593C147.146 190.164 146 192.115 146 194Z" fill="#9B572D" stroke="#814621" stroke-width="4"/>
<path d="M15 179C15 180.885 16.1459 182.836 18.5028 184.407C20.8457 185.969 24.1976 187 28 187C31.8024 187 35.1543 185.969 37.4972 184.407C39.8541 182.836 41 180.885 41 179C41 177.115 39.8541 175.164 37.4972 173.593C35.1543 172.031 31.8024 171 28 171C24.1976 171 20.8457 172.031 18.5028 173.593C16.1459 175.164 15 177.115 15 179Z" fill="#9B572D" stroke="#814621" stroke-width="4"/>
</svg>
